<svg id="Filled" height="512" viewBox="0 0 512 512" width="512" xmlns="http://www.w3.org/2000/svg"><path d="m24 64h272v384h-272z" fill="#eb423f"/><path d="m56 320h208v128h-208z" fill="#d13330"/><path d="m56 64h208v112h-208z" fill="#d13330"/><path d="m192 248-48 24v-48z" fill="#e9eef2"/><path d="m488 448h-128l-24-40-24 40h-128v-128h304z" fill="#e9eef2"/><path d="m312 392-16 24h-80v-64h96z" fill="#3397e8"/><path d="m360 392 16 24h80v-64h-96z" fill="#eb423f"/><path d="m195.578 240.845-48-24a8 8 0 0 0 -11.578 7.155v48a8 8 0 0 0 11.578 7.155l48-24a8 8 0 0 0 0-14.31zm-43.578 18.211v-22.112l22.111 11.056z"/><path d="m488 312h-184v-248a8 8 0 0 0 -8-8h-272a8 8 0 0 0 -8 8v384a8 8 0 0 0 8 8h288a8 8 0 0 0 6.86-3.884l17.14-28.567 17.14 28.567a8 8 0 0 0 6.86 3.884h128a8 8 0 0 0 8-8v-128a8 8 0 0 0 -8-8zm-216 0v-16h16v16zm-224-192h-16v-16h16zm0 16v16h-16v-16zm0 32v16h-16v-16zm0 32v16h-16v-16zm0 32v16h-16v-16zm0 32v16h-16v-16zm0 32v16h-16v-16zm0 32v16h-16v-16zm0 32v16h-16v-16zm0 32v16h-16v-16zm16-64h112v112h-112zm0-256h192v96h-192zm224 208h-16v-16h16zm0-32h-16v-16h16zm0-32h-16v-16h16zm0-32h-16v-16h16zm0-32h-16v-16h16zm0-32h-16v-16h16zm0-32h-16v-16h16zm-240-16v16h-16v-16zm-16 352h16v16h-16zm32-112v-128h192v128zm416 128h-115.471l-21.669-36.116a8 8 0 0 0 -13.72 0l-21.669 36.116h-115.471v-112h288z"/><path d="m216 424h80a8 8 0 0 0 6.656-3.562l16-24a8 8 0 0 0 1.344-4.438v-40a8 8 0 0 0 -8-8h-96a8 8 0 0 0 -8 8v64a8 8 0 0 0 8 8zm8-64h80v29.578l-12.281 18.422h-67.719z"/><path d="m369.344 420.438a8 8 0 0 0 6.656 3.562h80a8 8 0 0 0 8-8v-64a8 8 0 0 0 -8-8h-96a8 8 0 0 0 -8 8v40a8 8 0 0 0 1.344 4.438zm-1.344-60.438h80v48h-67.719l-12.281-18.422z"/></svg>