<svg xmlns="http://www.w3.org/2000/svg" width="512" height="512" viewBox="0 0 56 56"><g id="Page-1" fill="none" fill-rule="evenodd"><g id="004---Home-Connectivity" fill="#000" fill-rule="nonzero" transform="translate(-1)"><circle id="Oval" cx="4" cy="50" r="2"/><path id="Shape" d="m29.712 14.557c.206.032.416.044.626.057.5359101.0087192 1.0670959.1018623 1.574.276.3350728.1402982.6542138.3159598.952.524.1492548.1014841.3038068.1949497.463.28.1189698.066968.2547244.0982158.391.09-.016.006 0-.116-.027-.265-.0536182-.2216125-.1282909-.4375941-.223-.645-.062-.15-.123-.3-.177-.452-.3429116-.9770022-.4045859-2.0306632-.178-3.041.0993564-.4127242.1447353-.8365967.135-1.261-.9032552.5956033-1.719389 1.3138011-2.425 2.134-.385.4-.759.792-1.125 1.132-.627.582-.649.8-.64.848.1626453.1951407.4001846.3124575.654.323z"/><circle id="Oval" cx="24" cy="50" r="2"/><path id="Shape" d="m41.622 8.736c.4016163.86817832.7401594 1.7641645 1.013 2.681 1.0005428 3.8876803-.2844527 8.006792-3.318 10.636l-.237.2c-.528.436-1.125.931-1.13 1.36.0591684.3563606.3230973.6442118.673.734.2295029.0647588.4701324.0800964.706.045h.035l1.28-1.133c.770814-.7105386 1.959476-.7053022 2.724.012l7.2 6.366c1.8165198-9.5822874-2.1191931-19.3442149-10.074-24.987-.0146595.49551593.0381581.99072301.157 1.472.2493814.89715366.5742061 1.77160441.971 2.614z"/><path id="Shape" d="m9.88 16.045c.2223331 1.5074072-.21486052 3.0375849-1.2 4.2l-.14.2c-.62672211.7092382-1.04240433 1.579746-1.2 2.513-.015 1.03.834 1.961 1.733 2.947.383.42.779.854 1.127 1.317 1.3005512 1.7371169 1.8821339 3.9083828 1.624 6.063-.027.219-.062.441-.1.662-.0922224.4355763-.1258531.8815191-.1 1.326.046.384.279.707.448.728s.534-.147 1.152-1.478c.5757869-1.2585124 1.3067996-2.4400252 2.176-3.517.593-.718 1.245-1.366 1.875-1.993.7711306-.7260316 1.4833706-1.5121707 2.13-2.351.893-1.247 1.584-3.1.832-4.551-.6873034-1.0084585-1.6424863-1.8050215-2.758-2.3-.531-.308-1.079-.626-1.6-.994-1.6347546-1.1749595-2.8810785-2.811652-3.579-4.7-.4072039-1.0186452-.5329289-2.1280645-.364-3.212.1999877-1.24049057.9987326-2.30261552 2.135-2.839.9284824-.32882865 1.9291107-.39798057 2.894-.2.6090408.13172778 1.2403966.11974434 1.844-.035.7064493-.41360153 1.2557889-1.04980855 1.562-1.809.9943068-1.87963179 1.8538043-3.8275364 2.572-5.829-7.4109953.92155966-14.02313322 5.10484627-18.03 11.407.718.4486667 1.436.8963333 2.154 1.343 1.30238791.6328459 2.31013158 1.7441224 2.813 3.102z"/><path id="Shape" d="m14 48c-.2910525.0012813-.5782282.0668434-.841.192h-.007c-.9148931.4343331-1.3567292 1.4872677-1.0257304 2.4444063.3309987.9571387 1.3289066 1.5121794 2.3166609 1.2885369.9877544-.2236425 1.6492555-1.1543984 1.5356867-2.1607665-.1135689-1.0063681-.9658635-1.7662919-1.9786172-1.7641767z"/><path id="Shape" d="m42 45c-1.6568542 0-3 1.3431458-3 3v8h6v-8c0-1.6568542-1.3431458-3-3-3z"/><path id="Shape" d="m42.021 24.749c0 .005-.023 0-.036 0h-.006l-15 13.271 4.021-.02c.5522847 0 1 .4477153 1 1v17h5v-8c0-2.7614237 2.2385763-5 5-5s5 2.2385763 5 5v8h5v-17c0-.5522847.4477153-1 1-1h4z"/><path id="Shape" d="m25.142 38.736c-.3075336-.7644503-.1118692-1.6393725.492-2.2l11.877-10.504c-.9319108-.46421-1.53209-1.4042729-1.561-2.445.1546357-1.1892715.8357513-2.2460104 1.855-2.878l.22-.184c2.4245122-2.1378368 3.4560341-5.4483471 2.675-8.585-.2477121-.8227682-.5538229-1.6268103-.916-2.406-.4425606-.94504963-.8022442-1.92673491-1.075-2.934-.2611796-1.03225348-.2847716-2.11030896-.069-3.153-3.8289002-2.25954651-8.1941009-3.44996161-12.64-3.447-.3 0-.587.012-.88.022-.8072385 2.39222105-1.806145 4.71542277-2.987 6.947-.5069738 1.19046155-1.4271776 2.15754569-2.591 2.723-.9092641.29289962-1.8784033.3479839-2.815.16-.614871-.13595252-1.2535967-.12016457-1.861.046-.5219755.2742959-.880015.7830693-.962 1.367-.1013129.7337894-.0057143 1.4813221.277 2.166.5582305 1.5084894 1.5540858 2.8159847 2.86 3.755.438.313.924.593 1.437.891 1.4611518.667446 2.6906551 1.7545748 3.532 3.123 1.167 2.244.256 4.9-.987 6.637-.7097919.9279762-1.4929771 1.7974388-2.342 2.6-.623.62-1.211 1.205-1.74 1.845-.7587245.9459882-1.3969484 1.9825982-1.9 3.086-.347.732-1.228 2.632-2.924 2.632-.0962566.000202-.1924356-.0054753-.288-.017-1.206186-.2324814-2.10549332-1.2466637-2.192-2.472-.05223414-.6308852-.0138444-1.2659997.114-1.886.031-.194.063-.388.086-.584.1970985-1.6414593-.24592938-3.2957406-1.237-4.619-.292-.389-.64-.77-1.007-1.172-1.07-1.173-2.283-2.5-2.255-4.335.14218252-1.3378702.68682506-2.601148 1.562-3.623l.137-.2c.62268584-.703523.94567236-1.6225991.9-2.561-.193-.766-1.059-1.357-1.928-1.9-.70333333-.436-1.40666667-.8743333-2.11-1.315-6.14070827 11.5926525-2.25849733 25.9605469 8.885 32.883.3923565-.1298257.8027274-.1969834 1.216-.199 1.6567554.005166 3.138857 1.0311446 3.727 2.58.7693306.2721166 1.5528067.5024526 2.347.69.3679413-2.0140119 2.2001938-3.4229491 4.2411474-3.2612919 2.0409536.1616571 3.6285565 1.8414697 3.6748526 3.8882919.6733333-.0526667 1.3433333-.1336667 2.01-.243v-9.654h-3c-.8208172.0024087-1.5588105-.4996491-1.858-1.264zm3.2-26.815c.338-.315.684-.678 1.04-1.05.8461814-.98239381 1.8356336-1.83160335 2.935-2.519.6464366-.47174433 1.5197593-.48575914 2.181-.035 1.015.768.793 2.527.57 3.507-.1439728.6400713-.1055161 1.3076937.111 1.927.044.121.094.24.142.36.1505166.3338265.2648356.6828179.341 1.041.1809457.7955477-.0781637 1.627064-.679 2.179-.3697591.3037824-.8355237.4661266-1.314.458-.4289065-.0054929-.8506676-.1105909-1.232-.307-.227953-.1181067-.4486763-.2496726-.661-.394-.1827852-.1295435-.3776965-.241065-.582-.333-.3172015-.0941546-.6461258-.1429714-.977-.145-.27-.017-.541-.036-.806-.077-1.1241823-.0830464-2.0645528-.8857819-2.323-1.983-.0465148-1.0294592.4215762-2.0147364 1.249-2.629z"/></g></g></svg>