<svg id="Capa_1" enable-background="new 0 0 512 512" height="512" viewBox="0 0 512 512" width="512" xmlns="http://www.w3.org/2000/svg"><g><g><path d="m125 321c-68.925 0-125-56.075-125-125s56.075-125 125-125 125 56.075 125 125-56.075 125-125 125z" fill="#8bb9ff"/><path d="m250 196c0-68.925-56.075-125-125-125v250c68.925 0 125-56.075 125-125z" fill="#7d81e7"/><path d="m165 251h-80c-8.284 0-15-6.716-15-15s6.716-15 15-15h80c8.284 0 15 6.716 15 15s-6.716 15-15 15z" fill="#6b61b1"/><path d="m165 221h-40v30h40c8.284 0 15-6.716 15-15s-6.716-15-15-15z" fill="#38336b"/><circle cx="155" cy="171" fill="#38336b" r="15"/><circle cx="95" cy="171" fill="#6b61b1" r="15"/></g><g><path d="m315 512c-68.925 0-125-56.075-125-125s56.075-125 125-125 125 56.075 125 125-56.075 125-125 125z" fill="#ffe278"/><path d="m440 387c0-68.925-56.075-125-125-125v250c68.925 0 125-56.075 125-125z" fill="#ffb454"/><circle cx="345" cy="362" fill="#38336b" r="15"/><circle cx="285" cy="362" fill="#6b61b1" r="15"/><path d="m315 451.953c-18.327 0-36.654-6.976-50.606-20.929-5.858-5.858-5.858-15.355 0-21.213 5.857-5.858 15.355-5.858 21.213 0 16.207 16.207 42.58 16.207 58.787 0 5.857-5.858 15.355-5.858 21.213 0s5.858 15.355 0 21.213c-13.953 13.953-32.28 20.929-50.607 20.929z" fill="#6b61b1"/><path d="m365.606 431.024c5.858-5.858 5.858-15.355 0-21.213-5.857-5.858-15.355-5.858-21.213 0-8.104 8.104-18.749 12.155-29.394 12.155v29.986c18.328.001 36.655-6.975 50.607-20.928z" fill="#38336b"/></g><g><path d="m387 250c-68.925 0-125-56.075-125-125s56.075-125 125-125 125 56.075 125 125-56.075 125-125 125z" fill="#ff7038"/><path d="m512 125c0-68.925-56.075-125-125-125v250c68.925 0 125-56.075 125-125z" fill="#ff1f3d"/><circle cx="417" cy="100" fill="#38336b" r="15"/><circle cx="357" cy="100" fill="#6b61b1" r="15"/><path d="m427 186.582c-3.839 0-7.678-1.464-10.606-4.394-16.207-16.207-42.58-16.207-58.787 0-5.857 5.858-15.355 5.858-21.213 0s-5.858-15.355 0-21.213c27.904-27.905 73.309-27.905 101.213 0 5.858 5.858 5.858 15.355 0 21.213-2.929 2.93-6.768 4.394-10.607 4.394z" fill="#6b61b1"/><path d="m416.394 182.188c2.929 2.929 6.768 4.394 10.606 4.394s7.678-1.464 10.606-4.394c5.858-5.858 5.858-15.355 0-21.213-13.952-13.953-32.279-20.929-50.606-20.929v29.987c10.645 0 21.29 4.052 29.394 12.155z" fill="#38336b"/></g></g></svg>