<svg id="Layer_1" height="512" viewBox="0 0 512 512" width="512" xmlns="http://www.w3.org/2000/svg" data-name="Layer 1"><path d="m97.334 83.941a4.983 4.983 0 0 0 3.137-1.108c3.8-3.066 7.744-6.038 11.72-8.833a5 5 0 1 0 -5.75-8.182c-4.156 2.922-8.279 6.028-12.25 9.232a5 5 0 0 0 3.143 8.891z"/><path d="m26.262 178.669a4.993 4.993 0 0 0 6.449-2.9 217.673 217.673 0 0 1 50.445-77.415 5 5 0 1 0 -7.051-7.091 227.617 227.617 0 0 0 -52.742 80.956 5 5 0 0 0 2.899 6.45z"/><path d="m435.979 363.612a5 5 0 0 0 -6.858 1.724c-3.377 5.644-7.062 11.214-10.959 16.556a5 5 0 0 0 8.08 5.892c4.074-5.586 7.93-11.411 11.461-17.314a5 5 0 0 0 -1.724-6.858z"/><path d="m460.7 317.829a227.875 227.875 0 0 0 7.365-35.547 232.72 232.72 0 0 0 1.792-28.809 5 5 0 0 0 -10 0 222.813 222.813 0 0 1 -1.713 27.567 218.46 218.46 0 0 1 -7.041 33.984c-1.967 6.734-4.291 13.445-6.905 19.946-1.605 3.994-3.349 7.984-5.185 11.858a5 5 0 1 0 9.037 4.28c1.92-4.054 3.746-8.229 5.426-12.408 2.733-6.8 5.163-13.825 7.224-20.871z"/><path d="m131.916 62.6a5.92 5.92 0 1 0 -5.926-5.919 5.928 5.928 0 0 0 5.926 5.919z"/><path d="m405.664 397.45a5.92 5.92 0 1 0 5.926 5.92 5.929 5.929 0 0 0 -5.926-5.92z"/><path d="m60.641 341.6c-20.1 41.934-16.866 58.952-10.221 65.81 11.838 12.217 43.8 3.191 59.875-2.894a197.909 197.909 0 0 1 -49.654-62.916z"/><path d="m166.018 367.573a23.076 23.076 0 0 0 -3.131-5.5l-22.43-29.241a30.788 30.788 0 0 1 -5.25-10.513l-7.4-26.556a23 23 0 0 0 -16.09-15.922l-1.617-.441a25.8 25.8 0 0 1 -10.844-6.041l-13.805-12.921a36.1 36.1 0 0 1 -6.474-8.092 25.844 25.844 0 0 0 -27.209-12.288l-1.317.258c-.3 4.348-.469 8.733-.469 13.157a186.6 186.6 0 0 0 70.559 146.518c14.416-7.514 29.887-18.912 45.477-32.418z"/><path d="m173.812 360.656c20.766-18.846 41.454-40.9 59.858-61.992l-2.311-2.7c-.877-1.024-1.718-2.1-2.507-3.188l-10.11-14.013c-4.916-6.815-12.328-10.766-19.947-10.57a10.123 10.123 0 0 1 -5.432-1.421l-20.663-12.332a15.175 15.175 0 0 0 -14.832-.358l-10.887 5.8a26.569 26.569 0 0 1 -34.742-9.1l-10.576-16.6a27.744 27.744 0 0 1 .475-30.557 30.916 30.916 0 0 1 29.58-13.3l15.859 2a9.242 9.242 0 0 0 9.229-4.317 30.07 30.07 0 0 1 29.789-14.631l6.935.882a9.148 9.148 0 0 0 8.332-3.437l6.112-7.885a15.452 15.452 0 0 0 .466-18.389l-13.175-18.894a56.173 56.173 0 0 0 -17.713-16.308 66.233 66.233 0 0 1 -6.291-4.16l-22.572-16.876c-52.191 28.383-89.533 80.5-97.232 141.66a35.853 35.853 0 0 1 36.143 17.313 26.135 26.135 0 0 0 4.685 5.854l13.807 12.921a15.783 15.783 0 0 0 6.629 3.692l1.613.438a33.04 33.04 0 0 1 23.1 22.888l7.4 26.555a20.822 20.822 0 0 0 3.553 7.113l22.429 29.241a33.317 33.317 0 0 1 2.996 4.671z"/><path d="m301.277 129.2a17.635 17.635 0 0 0 -12.293 5.781l-32.591 35.279 19.087 17.16a28.723 28.723 0 0 0 38.926-.582 198.887 198.887 0 0 1 19.871-45.9 27.781 27.781 0 0 1 -20.218-7.136 17.639 17.639 0 0 0 -12.782-4.602z"/><path d="m238.961 289.464 1.324 1.548c25.565-29.848 45.85-56.65 54.319-68.083.013-.064.017-.128.033-.192a5 5 0 0 1 3.592-3.642l24.515-6.41-9.9-9.011a5 5 0 0 1 -1.534-2.72 38.883 38.883 0 0 1 -16.705 3.771 38.487 38.487 0 0 1 -25.814-9.871l-22.857-20.548a5 5 0 0 1 -.331-7.112l36.006-38.973a27.75 27.75 0 0 1 39.178-1.812 17.816 17.816 0 0 0 21.791 1.628 201.932 201.932 0 0 1 16.229-20.319 190.014 190.014 0 0 0 -200.155-24.443l18.59 13.9a56.236 56.236 0 0 0 5.338 3.53 66.254 66.254 0 0 1 20.887 19.231l13.176 18.895a25.41 25.41 0 0 1 -.766 30.235l-6.111 7.885a19.175 19.175 0 0 1 -17.5 7.23l-6.936-.882a20.081 20.081 0 0 0 -19.9 9.761 19.218 19.218 0 0 1 -19.114 9.188l-15.859-2a20.95 20.95 0 0 0 -20.061 9.01 17.753 17.753 0 0 0 -.306 19.555l10.576 16.6a16.521 16.521 0 0 0 21.607 5.642l10.887-5.8a25.231 25.231 0 0 1 24.656.6l20.662 12.328c10.918-.26 21.516 5.23 28.368 14.729l10.109 14.01c.635.868 1.307 1.724 2.006 2.542z"/><path d="m419.168 218.217a197.331 197.331 0 0 1 -43.453 23.6 28.724 28.724 0 0 0 2.685 39.291l18.871 17.4 32.047-35.724a17.776 17.776 0 0 0 -1.152-25.1 27.786 27.786 0 0 1 -8.998-19.467z"/><path d="m340.961 229.268-9.395-8.553-21.892 5.724 26.982 24.564z"/><path d="m307.191 250.211a8.8 8.8 0 0 0 -2.191.38 8.949 8.949 0 0 0 -6.252 7.821l-.869 11.363 11.234-1.929a8.887 8.887 0 0 0 -1.5-17.645c-.138-.001-.279-.001-.422.01z"/><path d="m401.332 308.958a5 5 0 0 1 -3.484 1.656c-.08 0-.159.006-.239.006a5 5 0 0 1 -3.388-1.324l-22.6-20.832a38.757 38.757 0 0 1 -9.957-42.029 5 5 0 0 1 -3.27-1.294l-8.8-8.011-4.854 24.5a4.987 4.987 0 0 1 -2.348 3.313c-20.5 36.007-72.017 112.087-165.343 166.255a190.333 190.333 0 0 0 191.797-40.708 186.971 186.971 0 0 0 57.535-109.456z"/><path d="m411.426 122.435a19.081 19.081 0 1 0 14.105 31.924 19.075 19.075 0 0 0 -14.105-31.924z"/><path d="m491.869 53.138a189.113 189.113 0 0 0 -31.412 4.972 78.159 78.159 0 0 0 29.381 26.648 188.581 188.581 0 0 0 2.031-31.62z"/><path d="m488.018 95.024a88.169 88.169 0 0 1 -37.625-34.138 187.958 187.958 0 0 0 -67.282 37.16 190.67 190.67 0 0 0 -61.373 100.2l41.246 37.548a188.628 188.628 0 0 0 125.034-140.77zm-75.237 75.54c-.467.022-.931.033-1.4.033a29.138 29.138 0 1 1 1.4-.033z"/><path d="m333.014 261.211-7.014-6.387a19.035 19.035 0 0 1 .475 3.379 18.865 18.865 0 0 1 -15.664 19.5l-17.559 3.014a4.924 4.924 0 0 1 -.846.073 5 5 0 0 1 -4.986-5.382l1.359-17.76a18.879 18.879 0 0 1 17.944-17.425 19.112 19.112 0 0 1 3.408.156l-9.563-8.706c-12.394 16.619-38.425 50.515-69.308 84.894-42.942 47.8-79.653 79.369-109.115 93.828-.393.192-28.2 13.1-52.338 13.1-10.293 0-19.914-2.346-26.465-9.027-7.84-8-9.945-20.427-6.276-37.572-22.14 40.78-20.296 60.704-13.277 70.424 15.123 20.953 65.781 11.175 84.24 5.584 131.2-49.354 200.071-148.334 224.985-191.693zm-129.549 127.889q-1.429 1.14-2.877 2.274a5 5 0 1 1 -6.17-7.869q1.414-1.108 2.812-2.224a5 5 0 1 1 6.235 7.819zm28.34-24.631c-4.93 4.661-10.026 9.263-15.143 13.679a5 5 0 0 1 -6.533-7.571c5-4.317 9.984-8.817 14.805-13.374a5 5 0 0 1 6.871 7.266zm9.232-11.093a5 5 0 0 1 -3.576-8.5c9.57-9.791 18.846-20.191 27.564-30.909a5 5 0 0 1 7.758 6.31c-8.91 10.953-18.388 21.581-28.172 31.589a4.981 4.981 0 0 1 -3.574 1.513z"/><path d="m344 480.866a7.012 7.012 0 1 0 7.012 7.011 7.021 7.021 0 0 0 -7.012-7.011z"/><path d="m356.072 451.692a10.03 10.03 0 1 0 10.032 10.03 10.042 10.042 0 0 0 -10.032-10.03z"/><path d="m33.184 47.26a7.013 7.013 0 1 0 7.016-7.012 7.02 7.02 0 0 0 -7.016 7.012z"/><circle cx="52.268" cy="21.104" r="10.03"/><path d="m154.391 30.876a18.987 18.987 0 0 1 11.929 11.97 5 5 0 0 0 9.491 0 18.983 18.983 0 0 1 11.929-11.97 5 5 0 0 0 0-9.484 18.979 18.979 0 0 1 -11.929-11.969 5 5 0 0 0 -9.491 0 18.984 18.984 0 0 1 -11.929 11.969 5 5 0 0 0 0 9.484z"/><path d="m237.033 481.124a18.983 18.983 0 0 1 -11.929-11.97 5 5 0 0 0 -9.491 0 18.987 18.987 0 0 1 -11.929 11.97 5 5 0 0 0 0 9.484 18.984 18.984 0 0 1 11.929 11.969 5 5 0 0 0 9.491 0 18.979 18.979 0 0 1 11.929-11.969 5 5 0 0 0 0-9.484z"/><path d="m489.533 428.812a18.979 18.979 0 0 1 -11.933-11.969 5 5 0 0 0 -9.491 0 18.984 18.984 0 0 1 -11.929 11.969 5 5 0 0 0 0 9.485 18.984 18.984 0 0 1 11.929 11.969 5 5 0 0 0 9.491 0 18.979 18.979 0 0 1 11.933-11.966 5 5 0 0 0 0-9.485z"/></svg>